<?xml version="1.0" encoding="UTF-8"?>
<svg width="145px" height="106px" viewBox="0 0 145 106" version="1.1" xmlns="http://www.w3.org/2000/svg" xmlns:xlink="http://www.w3.org/1999/xlink">
    <!-- Generator: Sketch 51.2 (57519) - http://www.bohemiancoding.com/sketch -->
    <title>Slow.CMYK.Logo.Symbol.White</title>
    <desc>Created with Sketch.</desc>
    <defs>
        <polygon id="path-1" points="0 0.04 144.938 0.04 144.938 106 0 106"></polygon>
    </defs>
    <g id="Symbols" stroke="none" stroke-width="1" fill="none" fill-rule="evenodd">
        <g id="Nav-Bar" transform="translate(-40.000000, -25.000000)">
            <g id="Slow.CMYK.Logo.Symbol.White" transform="translate(40.000000, 25.000000)">
                <mask id="mask-2" fill="white">
                    <use xlink:href="#path-1"></use>
                </mask>
                <g id="Clip-2"></g>
                <path d="M126.961,58.199 L126.961,47.801 L137.061,53 L126.961,58.199 Z M142.543,49.074 L120.961,37.963 L120.961,68.037 L142.544,56.926 C144.021,56.165 144.938,54.661 144.938,53 C144.938,51.339 144.021,49.835 142.543,49.074 Z" id="Fill-1" fill="#020202" mask="url(#mask-2)"></path>
                <path d="M11.741,35.539 C20.324,35.562 27.455,41.813 28.881,50 L6.169,50 C6.716,44.627 8.696,39.672 11.741,35.539 Z M35.5,23.5 C50.753,23.5 63.34,35.138 64.848,50 L34.944,50 C33.686,40.207 26.384,32.282 16.898,30.126 C21.977,25.987 28.453,23.5 35.5,23.5 Z M53,6 C77.908,6 98.34,25.478 99.894,50 L70.864,50 C69.335,31.825 54.063,17.5 35.5,17.5 C28.791,17.5 22.521,19.382 17.169,22.633 C25.796,12.468 38.654,6 53,6 Z M53,100 C38.653,100 25.796,93.532 17.168,83.367 C22.521,86.618 28.791,88.5 35.5,88.5 C54.063,88.5 69.334,74.176 70.864,56 L99.894,56 C98.34,80.523 77.907,100 53,100 Z M34.944,56 L64.848,56 C63.34,70.862 50.753,82.5 35.5,82.5 C28.452,82.5 21.977,80.013 16.897,75.874 C26.384,73.717 33.686,65.793 34.944,56 Z M11.741,70.461 C8.696,66.328 6.716,61.373 6.169,56 L28.881,56 C27.455,64.187 20.324,70.438 11.741,70.461 Z M103.825,38.002 C97.339,16.061 77.016,0 53,0 C23.775,0 0,23.775 0,53 C0,82.225 23.775,106 53,106 C77.016,106 97.339,89.939 103.825,67.998 C105.653,61.816 108.617,56.009 114.987,56.009 L114.987,49.991 C108.617,49.991 105.653,44.185 103.825,38.002 Z" id="Fill-3" fill="#020202" mask="url(#mask-2)"></path>
            </g>
        </g>
    </g>
</svg>